<svg width="25" height="25" viewBox="0 0 25 25" fill="000" xmlns="http://www.w3.org/2000/svg">
<path d="M1 4.83333H24M18.25 4.83333L17.861 3.79587C17.484 2.79049 17.2954 2.2878 16.9458 1.91614C16.637 1.58794 16.2405 1.33391 15.7926 1.17733C15.2853 1 14.6893 1 13.497 1H11.503C10.3107 1 9.7147 1 9.20742 1.17733C8.75951 1.33391 8.36299 1.58794 8.05423 1.91614C7.70457 2.2878 7.51607 2.79049 7.13905 3.79587L6.75 4.83333M21.125 4.83333V17.8667C21.125 20.0136 21.125 21.0869 20.6549 21.907C20.2415 22.6283 19.5818 23.2147 18.7704 23.5822C17.8478 24 16.6403 24 14.225 24H10.775C8.35977 24 7.15216 24 6.22967 23.5822C5.41821 23.2147 4.75849 22.6283 4.34503 21.907C3.875 21.0869 3.875 20.0136 3.875 17.8667V4.83333M15.375 9.94444V18.8889M9.625 9.94444V18.8889" stroke="black" stroke-width="2" stroke-linecap="round" stroke-linejoin="round"/>
</svg>
