<svg width="29" height="25" viewBox="0 0 29 25" fill="none" xmlns="http://www.w3.org/2000/svg">
<path d="M12.2331 2.34882H6.13515C4.33768 2.34882 3.43894 2.34882 2.7524 2.64381C2.14849 2.90328 1.65751 3.31731 1.34982 3.82654C1 4.40548 1 5.16334 1 6.67906V19.6698C1 21.1855 1 21.9434 1.34982 22.5223C1.65751 23.0315 2.14849 23.4456 2.7524 23.705C3.43894 24 4.33768 24 6.13515 24H21.5406C23.338 24 24.2369 24 24.9234 23.705C25.5272 23.4456 26.0183 23.0315 26.3259 22.5223C26.6757 21.9434 26.6757 21.1855 26.6757 19.6698V13.851M19.4544 4.37862L23.9933 8.20605M11.8523 10.7891L22.5211 1.79269C23.7744 0.735771 25.8066 0.735771 27.0599 1.79269C28.3134 2.8496 28.3134 4.5632 27.0599 5.62011L16.0482 14.9057C14.8261 15.9364 14.215 16.4517 13.5188 16.8615C12.901 17.2253 12.2346 17.5266 11.5335 17.7593C10.7435 18.0216 9.89629 18.1657 8.20193 18.4541L7.41893 18.5872L7.49508 18.1377C7.76453 16.5473 7.89926 15.752 8.20572 15.0095C8.47766 14.3506 8.84915 13.7242 9.31101 13.1455C9.83151 12.4932 10.5051 11.9251 11.8523 10.7891Z" stroke="black" stroke-width="2" stroke-linecap="round" stroke-linejoin="round"/>
</svg>
